<svg preserveAspectRatio="none" width="100%" height="100%" overflow="visible" style="display: block;" viewBox="0 0 9.36719 8.89755" fill="none" xmlns="http://www.w3.org/2000/svg">
<path id="Union" d="M4.24805 0.274377C4.56666 -0.0451175 5.05923 -0.0857317 5.42188 0.153283L5.56836 0.271447L9.09375 3.78707C9.18958 3.88264 9.26137 3.99749 9.30762 4.12203C9.30921 4.12628 9.31097 4.13046 9.3125 4.13473C9.34793 4.23457 9.36715 4.34029 9.36719 4.44821C9.36719 4.55603 9.34785 4.6619 9.3125 4.76168C9.31097 4.76596 9.3092 4.77013 9.30762 4.77438C9.26138 4.89911 9.18971 5.01462 9.09375 5.11031L5.56836 8.62594C5.20339 8.98945 4.61191 8.9877 4.24805 8.62301C3.88454 8.25806 3.88536 7.66657 4.25 7.3027L6.1748 5.38278H0.933594C0.418251 5.38278 0.000200242 4.96448 0 4.44918C4.51878e-08 3.93372 0.418128 3.51559 0.933594 3.51559H6.17578L4.25 1.59469L4.13086 1.44723C3.89136 1.08546 3.93 0.593723 4.24805 0.274377Z" fill="var(--fill-0, white)"/>
</svg>
