<svg width="62" height="62" viewBox="0 0 62 62" fill="none" xmlns="http://www.w3.org/2000/svg">
<rect width="62" height="62" rx="16" fill="url(#paint0_linear_38543_186099)"/>
<g clip-path="url(#clip0_38543_186099)">
<mask id="mask0_38543_186099" style="mask-type:alpha" maskUnits="userSpaceOnUse" x="10" y="10" width="43" height="42">
<path d="M31.2012 10.0171C42.8999 10.0175 52.3835 19.501 52.3838 31.1997C52.3838 40.2433 46.7158 47.9616 38.7393 51.0005C37.2972 49.8414 36.1191 48.368 35.3115 46.6821C42.1651 44.8671 47.2178 38.6241 47.2178 31.1997C47.2175 22.3544 40.0464 15.1835 31.2012 15.1831C22.3556 15.1831 15.1849 22.3542 15.1846 31.1997C15.1846 38.4949 20.0618 44.6494 26.7334 46.5835C25.9488 48.2592 24.8031 49.7316 23.3926 50.897C15.5577 47.7884 10.0176 40.1413 10.0176 31.1997C10.0179 19.5007 19.5021 10.0171 31.2012 10.0171Z" fill="#6D4CFE"/>
</mask>
<g mask="url(#mask0_38543_186099)">
<path d="M31.2003 53.9335C18.645 53.9335 8.46693 43.7554 8.46693 31.2001C8.46694 18.6449 18.645 8.4668 31.2003 8.4668C43.7555 8.4668 53.9336 18.6449 53.9336 31.2001C53.9336 43.7554 43.7555 53.9335 31.2003 53.9335Z" fill="url(#paint1_linear_38543_186099)"/>
<path d="M31.2003 53.9335C18.645 53.9335 8.46693 43.7554 8.46693 31.2001C8.46694 18.6449 18.645 8.4668 31.2003 8.4668C43.7555 8.4668 53.9336 18.6449 53.9336 31.2001C53.9336 43.7554 43.7555 53.9335 31.2003 53.9335Z" fill="white"/>
<path opacity="0.6" d="M33.7837 51.8671C23.2259 51.8671 14.6671 43.3083 14.6671 32.7505C14.6671 22.1926 23.2259 13.6338 33.7837 13.6338C44.3416 13.6338 52.9004 22.1926 52.9004 32.7505C52.9004 43.3083 44.3416 51.8671 33.7837 51.8671Z" fill="url(#paint2_linear_38543_186099)"/>
</g>
<mask id="mask1_38543_186099" style="mask-type:alpha" maskUnits="userSpaceOnUse" x="18" y="18" width="27" height="26">
<path d="M31.2002 18.2837C38.3336 18.2839 44.116 24.0663 44.1162 31.1997C44.1162 37.2528 39.9525 42.3325 34.333 43.7329C34.1805 42.9565 34.1006 42.1537 34.1006 41.3325C34.1006 40.2547 34.2385 39.2093 34.4971 38.2124C37.128 36.9733 38.9502 34.3004 38.9502 31.1997C38.9499 26.9198 35.4801 23.4499 31.2002 23.4497C26.9202 23.4497 23.4504 26.9197 23.4502 31.1997C23.4502 34.1136 25.0593 36.6505 27.4365 37.9741C27.7369 39.0427 27.9004 40.169 27.9004 41.3335C27.9004 42.1191 27.8265 42.8875 27.6865 43.6323C22.2605 42.1018 18.2832 37.1153 18.2832 31.1997C18.2834 24.0663 24.0667 18.2837 31.2002 18.2837Z" fill="#6D4CFF"/>
</mask>
<g mask="url(#mask1_38543_186099)">
<ellipse cx="31.1995" cy="31.1999" rx="13.4333" ry="13.4333" transform="rotate(90 31.1995 31.1999)" fill="white"/>
<path opacity="0.6" d="M33.2663 41.5334C27.5593 41.5334 22.9329 36.907 22.9329 31.2C22.9329 25.4931 27.5593 20.8667 33.2663 20.8667C38.9732 20.8667 43.5996 25.4931 43.5996 31.2C43.5996 36.907 38.9732 41.5334 33.2663 41.5334Z" fill="url(#paint3_linear_38543_186099)"/>
</g>
<path d="M36.1032 31.5645C33.9702 32.2799 32.2664 33.9706 31.564 36.1036C31.447 36.4548 30.9527 36.4548 30.8357 36.1036C30.1204 33.9706 28.4296 32.2669 26.2966 31.5645C25.9454 31.4475 25.9454 30.9532 26.2966 30.8362C28.4296 30.1209 30.1334 28.4301 30.8357 26.2971C30.9527 25.9459 31.447 25.9459 31.564 26.2971C32.2794 28.4301 33.9702 30.1339 36.1032 30.8362C36.4543 30.9532 36.4543 31.4475 36.1032 31.5645Z" fill="white"/>
</g>
<defs>
<linearGradient id="paint0_linear_38543_186099" x1="9.3" y1="5.16667" x2="50.1167" y2="54.7667" gradientUnits="userSpaceOnUse">
<stop stop-color="#C3A2FF"/>
<stop offset="0.563009" stop-color="#815AFF"/>
<stop offset="1" stop-color="#512AFF"/>
</linearGradient>
<linearGradient id="paint1_linear_38543_186099" x1="18.8003" y1="17.2501" x2="43.0836" y2="45.6668" gradientUnits="userSpaceOnUse">
<stop stop-color="#C2A2FF"/>
<stop offset="1" stop-color="#5028FF"/>
</linearGradient>
<linearGradient id="paint2_linear_38543_186099" x1="25.0004" y1="18.2838" x2="48.1995" y2="38.4922" gradientUnits="userSpaceOnUse">
<stop stop-color="#A07CFF"/>
<stop offset="1" stop-color="#A07CFF" stop-opacity="0"/>
</linearGradient>
<linearGradient id="paint3_linear_38543_186099" x1="29.3564" y1="23.9388" x2="37.38" y2="31.7369" gradientUnits="userSpaceOnUse">
<stop stop-color="#916BFF"/>
<stop offset="1" stop-color="#916BFF" stop-opacity="0"/>
</linearGradient>
<clipPath id="clip0_38543_186099">
<rect width="49.6" height="49.6" fill="white" transform="translate(6.19922 6.2002)"/>
</clipPath>
</defs>
</svg>
