<svg preserveAspectRatio="none" width="100%" height="100%" overflow="visible" style="display: block;" viewBox="0 0 21.8672 21.8672" fill="none" xmlns="http://www.w3.org/2000/svg">
<path id="Union" d="M10.9336 0C16.9719 0 21.8672 4.89528 21.8672 10.9336C21.8672 16.9719 16.9719 21.8672 10.9336 21.8672C4.89528 21.8672 0 16.9719 0 10.9336C1.76111e-07 4.89528 4.89528 1.76116e-07 10.9336 0ZM10.9336 1.86719C5.92621 1.86719 1.86719 5.92621 1.86719 10.9336C1.86719 15.941 5.92621 20 10.9336 20C15.941 20 20 15.941 20 10.9336C20 5.92621 15.941 1.86719 10.9336 1.86719ZM10.9336 6.95215C11.4491 6.95215 11.8672 7.37028 11.8672 7.88574V10H13.9814C14.4968 10.0002 14.915 10.4182 14.915 10.9336C14.915 11.449 14.4968 11.867 13.9814 11.8672H11.8672V13.9805L11.8477 14.1689C11.7604 14.594 11.3844 14.9141 10.9336 14.9141C10.4828 14.9141 10.1068 14.594 10.0195 14.1689L10 13.9805V11.8672H7.88574L7.69727 11.8477C7.27224 11.7604 6.95215 11.3844 6.95215 10.9336C6.95215 10.4828 7.27224 10.1068 7.69727 10.0195L7.88574 10H10V7.88574C10 7.37028 10.4181 6.95215 10.9336 6.95215Z" fill="var(--fill-0, #18181B)"/>
</svg>
