<svg preserveAspectRatio="none" width="100%" height="100%" overflow="visible" style="display: block;" viewBox="0 0 24 24" fill="none" xmlns="http://www.w3.org/2000/svg">
<g id="icon_ds">
<path id="Vector" d="M5.14538 18.8545C4.19711 17.9071 4.07205 16.2878 4.85325 14.2578C5.15658 13.4878 5.53458 12.7486 5.97791 12.0505L6.00965 12.0001L5.97885 11.9497C5.51218 11.2039 5.12951 10.4601 4.85325 9.74232C4.07298 7.71232 4.19711 6.09299 5.14538 5.14472C5.66805 4.62205 6.41845 4.34205 7.32471 4.34205C8.65471 4.34205 10.2815 4.93565 11.9512 5.98099L12.0007 6.01272L12.0502 5.98099C13.7208 4.93565 15.3467 4.34112 16.6767 4.34112C17.5839 4.34112 18.3343 4.62112 18.856 5.14379C19.8024 6.09112 19.9275 7.71232 19.1472 9.74139C18.8434 10.5114 18.4664 11.2506 18.0216 11.9487L17.9899 11.9991L18.0216 12.0486C18.4883 12.7953 18.871 13.5382 19.1463 14.2559C19.9275 16.2859 19.8034 17.9062 18.856 18.8535C18.3334 19.3762 17.583 19.6571 16.6767 19.6571C15.3467 19.6571 13.7199 19.0626 12.0502 18.0173L11.9998 17.9874L11.9503 18.0182C10.2796 19.0635 8.65378 19.6581 7.32378 19.6581C6.41658 19.6581 5.66711 19.3771 5.14538 18.8545ZM17.8676 14.7487C17.6931 14.2933 17.4672 13.8266 17.205 13.3562L17.135 13.233L17.0491 13.345C15.9772 14.732 14.7327 15.9765 13.3456 17.0485L13.2336 17.1353L13.3568 17.2043C14.5776 17.8894 15.7452 18.2889 16.6758 18.2889C17.2012 18.2889 17.6147 18.1601 17.8872 17.8875C18.1672 17.6075 18.2942 17.1651 18.2867 16.6313C18.2792 16.0946 18.1383 15.4515 17.8676 14.7487ZM11.9456 16.2887L11.9998 16.3279L12.0539 16.2887C13.69 15.1169 15.1246 13.6867 16.3015 12.0542L16.3416 12.0001L16.3015 11.9459C15.7128 11.1301 15.0596 10.3629 14.348 9.65179C13.6375 8.94326 12.8702 8.29399 12.0539 7.71045L11.9998 7.67312L11.9456 7.71232C10.3093 8.88382 8.87436 10.3137 7.69711 11.9459L7.65791 12.0001L7.69711 12.0551C8.28605 12.8709 8.94031 13.6371 9.65151 14.3483C10.3621 15.0568 11.1293 15.7052 11.9456 16.2887ZM17.8872 6.11352C17.6138 5.84005 17.2003 5.71125 16.6758 5.71125C15.7443 5.71125 14.5776 6.11165 13.3568 6.79672L13.2336 6.86579L13.3456 6.95165C14.7336 8.02251 15.9783 9.26718 17.0491 10.6551L17.135 10.7671L17.204 10.6439C17.4672 10.1735 17.6931 9.70685 17.8676 9.25139C18.1383 8.54859 18.2802 7.90552 18.2876 7.36885C18.2942 6.83499 18.1672 6.39352 17.8872 6.11352ZM6.13098 9.25139C6.31951 9.73112 6.54165 10.1969 6.79551 10.6449L6.86458 10.7662L6.95045 10.6551C8.02132 9.2672 9.26599 8.02253 10.6539 6.95165L10.7659 6.86579L10.6427 6.79672C9.42191 6.11072 8.25431 5.71125 7.32378 5.71125C6.79831 5.71125 6.38485 5.84005 6.11231 6.11259C5.83231 6.39352 5.70538 6.83499 5.71285 7.36885C5.71938 7.90552 5.86125 8.54859 6.13098 9.25139ZM6.13098 14.7487C5.86031 15.4515 5.72031 16.0946 5.71285 16.6313C5.70538 17.1651 5.83138 17.6066 6.11231 17.8866C6.38578 18.1601 6.79925 18.2889 7.32378 18.2889C8.25431 18.2889 9.42098 17.8894 10.6427 17.2043L10.765 17.1353L10.653 17.0485C9.26539 15.9775 8.02103 14.7329 6.95045 13.345L6.86365 13.233L6.79458 13.3562C6.54118 13.8042 6.31881 14.2695 6.13098 14.7487Z" fill="var(--fill-0, #6B6F7A)" stroke="var(--stroke-0, #6B6F7A)" stroke-width="0.133333"/>
<circle id="Ellipse 14467" cx="12.0001" cy="12.0001" r="1.33333" fill="var(--fill-0, #6B6F7A)"/>
</g>
</svg>
