<svg preserveAspectRatio="none" width="100%" height="100%" overflow="visible" style="display: block;" viewBox="0 0 21.8672 19.0869" fill="none" xmlns="http://www.w3.org/2000/svg">
<path id="Union" d="M12.9463 0C13.7039 0 14.4125 0.378615 14.833 1.00879L15.8594 2.5498C15.9336 2.66091 16.0588 2.72742 16.1924 2.72754H18.4336C20.3297 2.72754 21.867 4.26511 21.8672 6.16113V15.6553C21.8668 17.5511 20.3295 19.0869 18.4336 19.0869H3.43359C1.53768 19.0869 0.000419648 17.5511 0 15.6553V6.16113C0.000176042 4.26511 1.53752 2.72754 3.43359 2.72754H5.6748C5.80839 2.72742 5.93364 2.66091 6.00781 2.5498L7.03418 1.00879C7.45467 0.378615 8.16328 0 8.9209 0H12.9463ZM8.9209 1.86719C8.78709 1.86719 8.66114 1.93457 8.58691 2.0459L7.56152 3.58496C7.14116 4.21546 6.43258 4.59364 5.6748 4.59375H3.43359C2.56846 4.59375 1.86736 5.29604 1.86719 6.16113V15.6553C1.86761 16.5202 2.56861 17.2217 3.43359 17.2217H18.4336C19.2986 17.2217 19.9996 16.5202 20 15.6553V6.16113C19.9998 5.29604 19.2987 4.59375 18.4336 4.59375H16.1924C15.4346 4.59363 14.726 4.21546 14.3057 3.58496L13.2803 2.0459C13.2061 1.93457 13.0801 1.86719 12.9463 1.86719H8.9209ZM10.9346 6.2334C13.1855 6.23369 15.0096 8.05863 15.0098 10.3096C15.0096 12.5605 13.1855 14.3855 10.9346 14.3857C8.68339 14.3857 6.85756 12.5607 6.85742 10.3096C6.8576 8.05845 8.68341 6.2334 10.9346 6.2334ZM10.9346 8.10059C9.71434 8.10059 8.72479 9.08939 8.72461 10.3096C8.72475 11.5298 9.71432 12.5195 10.9346 12.5195C12.1546 12.5192 13.1444 11.5296 13.1445 10.3096C13.1444 9.08956 12.1546 8.10087 10.9346 8.10059Z" fill="var(--fill-0, #18181B)"/>
</svg>
