<svg preserveAspectRatio="none" width="100%" height="100%" overflow="visible" style="display: block;" viewBox="0 0 17.1318 21.1992" fill="none" xmlns="http://www.w3.org/2000/svg">
<path id="Union" d="M16.1982 8.64551C16.7134 8.64574 17.1317 9.06393 17.1318 9.5791C17.1318 11.8508 16.2284 14.0304 14.6221 15.6367C13.237 17.0215 11.4259 17.8808 9.49707 18.0918V20.2666C9.49678 20.7817 9.07861 21.199 8.56348 21.1992C8.04819 21.1992 7.63018 20.7818 7.62988 20.2666V18.0908C5.70261 17.8791 3.89288 17.0207 2.50879 15.6367C0.902559 14.0304 0 11.8507 0 9.5791C0.000176349 9.06379 0.418237 8.64551 0.933594 8.64551C1.44895 8.64551 1.86701 9.06379 1.86719 9.5791C1.86719 11.3557 2.57294 13.0602 3.8291 14.3164C5.08519 15.5723 6.78919 16.2782 8.56543 16.2783C10.3417 16.2782 12.0456 15.5723 13.3018 14.3164C14.558 13.0601 15.2646 11.3557 15.2646 9.5791C15.2648 9.06379 15.6829 8.64551 16.1982 8.64551ZM8.5625 0C11.0449 0 13.0574 2.01281 13.0576 4.49512V10.0928C13.0573 12.575 11.0448 14.5869 8.5625 14.5869C6.08041 14.5867 4.06773 12.5748 4.06738 10.0928V4.49512C4.06763 2.01297 6.08035 0.000245036 8.5625 0ZM8.5625 1.86719C7.11128 1.86743 5.93482 3.0439 5.93457 4.49512V10.0928C5.93492 11.5439 7.11134 12.7195 8.5625 12.7197C10.0139 12.7197 11.1911 11.5441 11.1914 10.0928V4.49512C11.1912 3.04375 10.0139 1.86719 8.5625 1.86719Z" fill="var(--fill-0, #18181B)"/>
</svg>
