<svg width="72" height="28" viewBox="0 0 72 28" fill="none" xmlns="http://www.w3.org/2000/svg">
<path d="M13.3818 3.71163C13.8006 3.6788 14.2117 3.82306 14.5166 4.10421L14.6406 4.23311L14.7344 4.35811C14.9301 4.65492 14.9666 4.97721 14.9815 5.14424C15.0012 5.36791 15 5.64849 15 5.93135V22.0681C15 22.3511 15.0013 22.6324 14.9815 22.8562C14.9645 23.0471 14.9195 23.4406 14.6406 23.7673C14.3289 24.1321 13.8603 24.3253 13.3818 24.2878C12.9537 24.2539 12.644 24.0075 12.4971 23.8845C12.3249 23.7403 12.1268 23.5416 11.9268 23.3415L7.58594 18.9997H5.9004C5.49706 18.9997 5.13322 19.0008 4.83302 18.9763C4.52129 18.9508 4.18988 18.8926 3.86524 18.7273C3.39486 18.4876 3.01215 18.1049 2.77247 17.6345C2.60707 17.3097 2.54894 16.9785 2.52344 16.6667C2.49893 16.3665 2.50001 16.0036 2.50001 15.6003V12.4001C2.50001 11.9966 2.49891 11.633 2.52344 11.3327C2.54896 11.021 2.60707 10.6896 2.77247 10.3649C3.01216 9.89468 3.39494 9.51181 3.86524 9.27217C4.18982 9.10694 4.52135 9.04864 4.83302 9.02315C5.13322 8.99866 5.49707 8.99971 5.9004 8.99971H7.58594L11.9268 4.65792C12.1268 4.45787 12.3249 4.25909 12.4971 4.11495C12.6441 3.99187 12.9538 3.74548 13.3818 3.71163ZM8.70704 10.7067C8.51961 10.8942 8.26506 10.9996 8.00001 10.9997H5.9004C5.4642 10.9997 5.19601 11.001 4.9961 11.0173C4.90358 11.0249 4.84677 11.0337 4.81251 11.0417C4.79697 11.0454 4.78682 11.0495 4.78126 11.0515C4.77747 11.0528 4.77458 11.0539 4.77344 11.0544C4.67947 11.1023 4.60264 11.1792 4.55469 11.2732C4.55436 11.2738 4.55337 11.2765 4.55177 11.281C4.54984 11.2864 4.54577 11.2963 4.542 11.3122C4.53395 11.3464 4.52519 11.4029 4.51759 11.4958C4.50125 11.6957 4.50001 11.9637 4.50001 12.4001V15.6003C4.50001 16.0365 4.50126 16.3037 4.51759 16.5036C4.52518 16.5965 4.53395 16.653 4.542 16.6872C4.54583 16.7035 4.54983 16.714 4.55177 16.7194C4.55351 16.7243 4.5545 16.7269 4.55469 16.7273C4.60265 16.8211 4.67952 16.8972 4.77344 16.945C4.77443 16.9456 4.77714 16.9475 4.78126 16.9489C4.78686 16.9509 4.7971 16.9541 4.81251 16.9577C4.84677 16.9658 4.90343 16.9755 4.9961 16.9831C5.19601 16.9994 5.46419 16.9997 5.9004 16.9997H8.00001C8.26503 16.9998 8.51962 17.1053 8.70704 17.2927L13 21.5857V6.41378L8.70704 10.7067ZM25.2471 10.0564C25.6107 9.64083 26.2426 9.59827 26.6582 9.96163C27.0736 10.3252 27.1163 10.9572 26.7529 11.3728L23.5781 14.9997L26.7529 18.6276L26.8164 18.7077C27.1097 19.1209 27.0478 19.6979 26.6582 20.0388C26.2426 20.4019 25.6106 20.3594 25.2471 19.944L22.25 16.5183L19.2529 19.944C18.8893 20.3593 18.2574 20.402 17.8418 20.0388C17.4263 19.6752 17.3839 19.0433 17.7471 18.6276L20.9209 14.9997L17.7471 11.3728L17.6836 11.2927C17.3903 10.8796 17.4524 10.3025 17.8418 9.96163C18.2314 9.621 18.8112 9.6365 19.1816 9.98214L19.2529 10.0564L22.25 13.4812L25.2471 10.0564Z" fill="#18181B"/>
<path d="M58 3.5C63.799 3.5 68.5 8.20101 68.5 14C68.5 19.799 63.799 24.5 58 24.5C56.2013 24.5 54.5079 24.0442 53.0273 23.2461L50.5059 23.9678H50.5049C48.9969 24.3979 47.6019 23.0034 48.0322 21.4951L48.7529 18.9707C47.9555 17.4905 47.5 15.7979 47.5 14C47.5 8.20103 52.2011 3.50006 58 3.5ZM58 5.5C53.3056 5.50005 49.5 9.30562 49.5 14C49.5 15.5849 49.9342 17.0657 50.6885 18.335C50.8291 18.5715 50.8665 18.8555 50.791 19.1201L49.9561 22.043L52.8779 21.208C53.1427 21.1323 53.4273 21.1698 53.6641 21.3105C54.9336 22.0653 56.4147 22.5 58 22.5C62.6944 22.5 66.5 18.6944 66.5 14C66.5 9.30558 62.6944 5.5 58 5.5ZM58 9C58.5523 9 59 9.44772 59 10V12.999L62 12.998C62.5521 12.998 62.9997 13.4449 63 13.9971C63.0003 14.5147 62.6075 14.9414 62.1035 14.9932L62.001 14.998L59 14.999V18C59 18.5523 58.5523 19 58 19C57.4477 19 57 18.5523 57 18V15.001L54.001 15.0029L53.8984 14.998C53.3943 14.947 53.0003 14.5206 53 14.0029C52.9998 13.4854 53.3934 13.0594 53.8975 13.0078L54 13.0029L57 13.001V10C57 9.44772 57.4477 9 58 9Z" fill="#18181B"/>
</svg>
