<svg preserveAspectRatio="none" width="100%" height="100%" overflow="visible" style="display: block;" viewBox="0 0 145.049 13.1068" fill="none" xmlns="http://www.w3.org/2000/svg">
<g id="&#233;&#159;&#179;&#230;&#179;&#162;">
<path id="&#233;&#159;&#179;&#230;&#179;&#162;_2" d="M32.5486 0.167248C33.1516 0.167274 33.6402 0.656038 33.6404 1.25905V11.4094C33.6404 12.0126 33.1518 12.5022 32.5486 12.5022C31.9454 12.5022 31.4568 12.0127 31.4568 11.4094V1.25905C31.457 0.656022 31.9455 0.167248 32.5486 0.167248ZM105.947 0.167248C106.55 0.167479 107.039 0.656164 107.039 1.25905V11.4094C107.039 12.0125 106.55 12.502 105.947 12.5022C105.344 12.5022 104.855 12.0127 104.855 11.4094V1.25905C104.855 0.656022 105.344 0.167248 105.947 0.167248ZM57.0144 0.948498C57.6176 0.948498 58.1062 1.43707 58.1062 2.0403V10.6292C58.1062 11.2324 57.6176 11.7219 57.0144 11.7219C56.4113 11.7219 55.9226 11.2323 55.9226 10.6292V2.0403C55.9226 1.43712 56.4113 0.948579 57.0144 0.948498ZM38.6648 1.72877C39.2679 1.72877 39.7563 2.21756 39.7566 2.82057V9.84791C39.7566 10.4511 39.268 10.9407 38.6648 10.9407C38.0617 10.9406 37.573 10.4511 37.573 9.84791V2.82057C37.5733 2.21764 38.0618 1.7289 38.6648 1.72877ZM112.063 1.72877C112.666 1.72885 113.155 2.2176 113.155 2.82057V9.84791C113.155 10.4511 112.666 10.9406 112.063 10.9407C111.46 10.9407 110.971 10.4511 110.971 9.84791V2.82057C110.972 2.21756 111.46 1.72877 112.063 1.72877ZM26.4324 2.51002C27.0354 2.51021 27.5242 2.99871 27.5242 3.60182V9.06764C27.5242 9.67074 27.0354 10.1593 26.4324 10.1594C25.8292 10.1594 25.3406 9.67086 25.3406 9.06764V3.60182C25.3406 2.99859 25.8292 2.51002 26.4324 2.51002ZM99.8298 2.51002C100.433 2.51002 100.922 2.99859 100.922 3.60182V9.06764C100.922 9.67086 100.433 10.1594 99.8298 10.1594C99.2267 10.1593 98.7381 9.67077 98.738 9.06764V3.60182C98.738 2.99868 99.2267 2.51016 99.8298 2.51002ZM50.8982 2.89967C51.5013 2.89975 51.9898 3.38843 51.99 3.99147V8.67604C51.99 9.27921 51.5014 9.76873 50.8982 9.76881C50.295 9.76881 49.8064 9.27926 49.8064 8.67604V3.99147C49.8066 3.38838 50.2951 2.89967 50.8982 2.89967ZM124.296 2.89967C124.899 2.89967 125.387 3.38838 125.387 3.99147V8.67604C125.387 9.27926 124.899 9.76881 124.296 9.76881C123.693 9.76857 123.204 9.27911 123.204 8.67604V3.99147C123.204 3.38853 123.693 2.89991 124.296 2.89967ZM8.08277 3.48658C8.68588 3.48672 9.17457 3.97524 9.17457 4.57838V8.09205C9.17436 8.69502 8.68575 9.18469 8.08277 9.18483C7.47968 9.18483 6.99118 8.6951 6.99097 8.09205V4.57838C6.99097 3.97516 7.47955 3.48658 8.08277 3.48658ZM20.3152 3.48658C20.9184 3.48658 21.407 3.97516 21.407 4.57838V8.09205C21.4068 8.6951 20.9183 9.18483 20.3152 9.18483C19.7123 9.18464 19.2236 8.69498 19.2234 8.09205V4.57838C19.2234 3.97527 19.7121 3.48677 20.3152 3.48658ZM44.782 3.48658C45.385 3.48682 45.8738 3.9753 45.8738 4.57838V8.09205C45.8736 8.69495 45.3849 9.18459 44.782 9.18483C44.1789 9.18483 43.6904 8.6951 43.6902 8.09205V4.57838C43.6902 3.97516 44.1788 3.48658 44.782 3.48658ZM63.1306 3.48658C63.7338 3.48658 64.2224 3.97516 64.2224 4.57838V8.09205C64.2222 8.6951 63.7337 9.18483 63.1306 9.18483C62.5277 9.18459 62.039 8.69495 62.0388 8.09205V4.57838C62.0388 3.9753 62.5276 3.48682 63.1306 3.48658ZM93.7136 3.48658C94.3168 3.4866 94.8054 3.97517 94.8054 4.57838V8.09205C94.8052 8.69509 94.3167 9.18481 93.7136 9.18483C93.1105 9.18483 92.622 8.6951 92.6218 8.09205V4.57838C92.6218 3.97516 93.1104 3.48658 93.7136 3.48658ZM118.179 3.48658C118.783 3.48658 119.271 3.97516 119.271 4.57838V8.09205C119.271 8.6951 118.783 9.18483 118.179 9.18483C117.576 9.18474 117.088 8.69504 117.088 8.09205V4.57838C117.088 3.97521 117.576 3.48667 118.179 3.48658ZM136.529 3.48658C137.132 3.48658 137.621 3.97516 137.621 4.57838V8.09205C137.621 8.6951 137.132 9.18483 136.529 9.18483C135.926 9.18479 135.437 8.69508 135.437 8.09205V4.57838C135.437 3.97518 135.926 3.48662 136.529 3.48658ZM14.199 4.26686C14.8022 4.26686 15.2907 4.75548 15.2908 5.35865V7.3108C15.2907 7.91399 14.8022 8.4026 14.199 8.4026C13.5958 8.40257 13.1072 7.91398 13.1072 7.3108V5.35865C13.1072 4.7555 13.5958 4.26688 14.199 4.26686ZM69.2478 4.26686C69.8509 4.26699 70.3395 4.75556 70.3396 5.35865V7.3108C70.3396 7.91391 69.8509 8.40247 69.2478 8.4026C68.6446 8.4026 68.1561 7.91399 68.156 7.3108V5.35865C68.1561 4.75548 68.6446 4.26686 69.2478 4.26686ZM87.5974 4.26686C88.2005 4.26704 88.6892 4.75559 88.6892 5.35865V7.3108C88.6892 7.91388 88.2005 8.40242 87.5974 8.4026C86.9942 8.4026 86.5057 7.91399 86.5056 7.3108V5.35865C86.5057 4.75548 86.9942 4.26686 87.5974 4.26686ZM130.413 4.26686C131.016 4.26698 131.505 4.75556 131.505 5.35865V7.3108C131.505 7.91392 131.016 8.40248 130.413 8.4026C129.81 8.4026 129.321 7.91399 129.321 7.3108V5.35865C129.321 4.75548 129.81 4.26686 130.413 4.26686ZM1.96558 5.04811C2.56881 5.04811 3.05738 5.53668 3.05738 6.1399V6.53053C3.05707 7.13349 2.56862 7.62233 1.96558 7.62233C1.36275 7.62209 0.874094 7.13335 0.873786 6.53053V6.1399C0.873786 5.53683 1.36256 5.04834 1.96558 5.04811ZM75.364 5.04811C75.9672 5.04811 76.4558 5.53668 76.4558 6.1399V6.53053C76.4555 7.13349 75.9671 7.62233 75.364 7.62233C74.761 7.6223 74.2725 7.13347 74.2722 6.53053V6.1399C74.2722 5.5367 74.7608 5.04814 75.364 5.04811ZM81.4802 5.04811C82.0835 5.04811 82.572 5.53668 82.572 6.1399V6.53053C82.5717 7.13349 82.0833 7.62233 81.4802 7.62233C80.8774 7.62214 80.3887 7.13337 80.3884 6.53053V6.1399C80.3884 5.5368 80.8772 5.0483 81.4802 5.04811ZM142.645 5.04811C143.248 5.04811 143.737 5.53668 143.737 6.1399V6.53053C143.737 7.13349 143.248 7.62233 142.645 7.62233C142.042 7.62214 141.554 7.13337 141.553 6.53053V6.1399C141.553 5.5368 142.042 5.0483 142.645 5.04811Z" fill="url(#paint0_linear_0_4)"/>
</g>
<defs>
<linearGradient id="paint0_linear_0_4" x1="-14.8543" y1="-2.18438" x2="163.834" y2="26.2143" gradientUnits="userSpaceOnUse">
<stop stop-color="#3F89FF"/>
<stop offset="0.292548" stop-color="#7066FF"/>
<stop offset="0.655366" stop-color="#BB73E2"/>
<stop offset="1" stop-color="#FF80C8"/>
</linearGradient>
</defs>
</svg>
