<svg width="50" height="50" viewBox="0 0 50 50" fill="none" xmlns="http://www.w3.org/2000/svg">
  <g filter="url(#filter0_di_37436_68537)">
    <path fill-rule="evenodd" clip-rule="evenodd" d="M38.1207 12.5031C35.0014 8.53952 28.7332 2.66754 16.7315 7.36513C4.72974 12.0627 3.39291 29.3263 8.2649 35.5506C13.1369 41.7749 21.6659 45.1161 27.6073 44.2353C33.5488 43.3545 35.2124 41.1525 36.668 39.5377C38.1207 37.9229 40.7944 34.6933 40.7944 30.2658C40.7944 25.8413 41.537 22.7204 41.537 21.3111C41.537 19.9018 41.24 16.4667 38.1207 12.5031Z" fill="url(#paint0_radial_37436_68537)" fill-opacity="0.6"/>
    <path fill-rule="evenodd" clip-rule="evenodd" d="M38.1207 12.5031C35.0014 8.53952 28.7332 2.66754 16.7315 7.36513C4.72974 12.0627 3.39291 29.3263 8.2649 35.5506C13.1369 41.7749 21.6659 45.1161 27.6073 44.2353C33.5488 43.3545 35.2124 41.1525 36.668 39.5377C38.1207 37.9229 40.7944 34.6933 40.7944 30.2658C40.7944 25.8413 41.537 22.7204 41.537 21.3111C41.537 19.9018 41.24 16.4667 38.1207 12.5031Z" fill="url(#paint1_radial_37436_68537)" fill-opacity="0.4"/>
    <path fill-rule="evenodd" clip-rule="evenodd" d="M38.1207 12.5031C35.0014 8.53952 28.7332 2.66754 16.7315 7.36513C4.72974 12.0627 3.39291 29.3263 8.2649 35.5506C13.1369 41.7749 21.6659 45.1161 27.6073 44.2353C33.5488 43.3545 35.2124 41.1525 36.668 39.5377C38.1207 37.9229 40.7944 34.6933 40.7944 30.2658C40.7944 25.8413 41.537 22.7204 41.537 21.3111C41.537 19.9018 41.24 16.4667 38.1207 12.5031Z" fill="url(#paint2_radial_37436_68537)" fill-opacity="0.34"/>
    <path fill-rule="evenodd" clip-rule="evenodd" d="M38.1207 12.5031C35.0014 8.53952 28.7332 2.66754 16.7315 7.36513C4.72974 12.0627 3.39291 29.3263 8.2649 35.5506C13.1369 41.7749 21.6659 45.1161 27.6073 44.2353C33.5488 43.3545 35.2124 41.1525 36.668 39.5377C38.1207 37.9229 40.7944 34.6933 40.7944 30.2658C40.7944 25.8413 41.537 22.7204 41.537 21.3111C41.537 19.9018 41.24 16.4667 38.1207 12.5031Z" fill="url(#paint4_radial_37436_68537)" fill-opacity="0.6"/>
    <path d="M16.7315 7.36513C4.72974 12.0627 3.39291 29.3263 8.2649 35.5506C13.1369 41.7749 21.6659 45.1161 27.6073 44.2353C33.5488 43.3545 35.2124 41.1525 36.668 39.5377C38.1207 37.9229 40.7944 34.6933 40.7944 30.2658C40.7944 25.8413 41.537 22.7204 41.537 21.3111C41.537 19.9018 41.24 16.4667 38.1207 12.5031C35.0014 8.53952 28.7332 2.66754 16.7315 7.36513Z" stroke="url(#paint5_linear_37436_68537)" stroke-opacity="0.6" stroke-width="0.127857"/>
    <path fill-rule="evenodd" clip-rule="evenodd" d="M31.7702 9.37788C29.1052 8.63368 26.5291 7.2048 22.1467 7.44295C17.7642 7.68109 9.73967 10.9258 8.08145 20.0945C6.42324 29.2631 9.92621 38.8752 15.4842 41.6764C21.0451 44.4806 32.3032 42.0694 37.3963 37.7827C41.8883 34.0022 45.3113 28.5695 44.0588 22.0056C42.7263 15.01 37.346 10.9348 31.7702 9.37788Z" fill="url(#paint15_radial_37436_68537)" fill-opacity="0.6"/>
    <path fill-rule="evenodd" clip-rule="evenodd" d="M31.7702 9.37788C29.1052 8.63368 26.5291 7.2048 22.1467 7.44295C17.7642 7.68109 9.73967 10.9258 8.08145 20.0945C6.42324 29.2631 9.92621 38.8752 15.4842 41.6764C21.0451 44.4806 32.3032 42.0694 37.3963 37.7827C41.8883 34.0022 45.3113 28.5695 44.0588 22.0056C42.7263 15.01 37.346 10.9348 31.7702 9.37788Z" fill="url(#paint16_radial_37436_68537)" fill-opacity="0.4"/>
    <path fill-rule="evenodd" clip-rule="evenodd" d="M31.7702 9.37788C29.1052 8.63368 26.5291 7.2048 22.1467 7.44295C17.7642 7.68109 9.73967 10.9258 8.08145 20.0945C6.42324 29.2631 9.92621 38.8752 15.4842 41.6764C21.0451 44.4806 32.3032 42.0694 37.3963 37.7827C41.8883 34.0022 45.3113 28.5695 44.0588 22.0056C42.7263 15.01 37.346 10.9348 31.7702 9.37788Z" fill="url(#paint17_radial_37436_68537)" fill-opacity="0.34"/>
    <path fill-rule="evenodd" clip-rule="evenodd" d="M31.7702 9.37788C29.1052 8.63368 26.5291 7.2048 22.1467 7.44295C17.7642 7.68109 9.73967 10.9258 8.08145 20.0945C6.42324 29.2631 9.92621 38.8752 15.4842 41.6764C21.0451 44.4806 32.3032 42.0694 37.3963 37.7827C41.8883 34.0022 45.3113 28.5695 44.0588 22.0056C42.7263 15.01 37.346 10.9348 31.7702 9.37788Z" fill="url(#paint20_radial_37436_68537)" fill-opacity="0.8"/>
    <path fill-rule="evenodd" clip-rule="evenodd" d="M31.7702 9.37788C29.1052 8.63368 26.5291 7.2048 22.1467 7.44295C17.7642 7.68109 9.73967 10.9258 8.08145 20.0945C6.42324 29.2631 9.92621 38.8752 15.4842 41.6764C21.0451 44.4806 32.3032 42.0694 37.3963 37.7827C41.8883 34.0022 45.3113 28.5695 44.0588 22.0056C42.7263 15.01 37.346 10.9348 31.7702 9.37788Z" fill="url(#paint21_radial_37436_68537)"/>
    <path d="M22.1467 7.44441C17.7642 7.68256 9.73967 10.9273 8.08145 20.0959C6.42324 29.2645 9.92621 38.8767 15.4842 41.6779C21.0451 44.4821 32.3032 42.0708 37.3963 37.7842C41.8883 34.0036 45.3113 28.5709 44.0588 22.007C42.7263 15.0115 37.346 10.9362 31.7702 9.37935C29.1052 8.63514 26.5291 7.20627 22.1467 7.44441Z" stroke="url(#paint28_linear_37436_68537)" stroke-opacity="0.6" stroke-width="0.127857"/>
    <g opacity="0.52">
      <path d="M24.6184 40.292C33.4135 40.292 40.5434 33.1621 40.5434 24.3669C40.5434 15.5718 33.4135 8.44189 24.6184 8.44189C15.8232 8.44189 8.69336 15.5718 8.69336 24.3669C8.69336 33.1621 15.8232 40.292 24.6184 40.292Z" fill="url(#paint29_radial_37436_68537)"/>
    </g>
  </g>
  <defs>
    <filter id="filter0_di_37436_68537" x="5.04716" y="5.04961" width="39.6776" height="40.2413" filterUnits="userSpaceOnUse" color-interpolation-filters="sRGB">
      <feFlood flood-opacity="0" result="BackgroundImageFix"/>
      <feColorMatrix in="SourceAlpha" type="matrix" values="0 0 0 0 0 0 0 0 0 0 0 0 0 0 0 0 0 0 127 0" result="hardAlpha"/>
      <feOffset dy="0.51143"/>
      <feGaussianBlur stdDeviation="0.170477"/>
      <feComposite in2="hardAlpha" operator="out"/>
      <feColorMatrix type="matrix" values="0 0 0 0 1 0 0 0 0 0.27451 0 0 0 0 0 0 0 0 0.25 0"/>
      <feBlend mode="normal" in2="BackgroundImageFix" result="effect1_dropShadow_37436_68537"/>
      <feBlend mode="normal" in="SourceGraphic" in2="effect1_dropShadow_37436_68537" result="shape"/>
      <feColorMatrix in="SourceAlpha" type="matrix" values="0 0 0 0 0 0 0 0 0 0 0 0 0 0 0 0 0 0 127 0" result="hardAlpha"/>
      <feOffset dx="-0.51143" dy="-0.51143"/>
      <feGaussianBlur stdDeviation="0.340952"/>
      <feComposite in2="hardAlpha" operator="arithmetic" k2="-1" k3="1"/>
      <feColorMatrix type="matrix" values="0 0 0 0 0.41176 0 0 0 0 0.47451 0 0 0 0 1 0 0 0 0.3 0"/>
      <feBlend mode="normal" in2="shape" result="effect2_innerShadow_37436_68537"/>
    </filter>
    <radialGradient id="paint0_radial_37436_68537" cx="0" cy="0" r="1" gradientTransform="matrix(-4.42242 38.7477 -35.0731 -3.90995 28.0039 5.62702)" gradientUnits="userSpaceOnUse">
      <stop offset="0.018757" stop-color="#4F7AFF"/>
      <stop offset="0.510566" stop-color="white" stop-opacity="0"/>
    </radialGradient>
    <radialGradient id="paint1_radial_37436_68537" cx="0" cy="0" r="1" gradientTransform="matrix(18.4234 18.852 -28.3214 27.034 9.18405 12.4649)" gradientUnits="userSpaceOnUse">
      <stop offset="0.007027" stop-color="#B6B8FF"/>
      <stop offset="0.775471" stop-color="white" stop-opacity="0"/>
    </radialGradient>
    <radialGradient id="paint2_radial_37436_68537" cx="0" cy="0" r="1" gradientTransform="matrix(20.3187 12.4818 -11.5693 18.3953 21.2202 25.0007)" gradientUnits="userSpaceOnUse">
      <stop offset="0.413882" stop-color="white" stop-opacity="0"/>
      <stop offset="1" stop-color="#8879FD"/>
    </radialGradient>
    <radialGradient id="paint4_radial_37436_68537" cx="0" cy="0" r="1" gradientTransform="matrix(-17.8245 28.3322 -21.4967 -13.2096 32.2119 12.233)" gradientUnits="userSpaceOnUse">
      <stop offset="0.928993" stop-color="#FFB000" stop-opacity="0"/>
      <stop offset="1" stop-color="#FF9E00"/>
    </radialGradient>
    <linearGradient id="paint5_linear_37436_68537" x1="5.62393" y1="30.5076" x2="37.849" y2="15.9145" gradientUnits="userSpaceOnUse">
      <stop offset="0.496183" stop-color="white"/>
      <stop offset="1" stop-color="#90E0FF" stop-opacity="0.533333"/>
    </linearGradient>
    <radialGradient id="paint15_radial_37436_68537" cx="0" cy="0" r="1" gradientTransform="matrix(-4.5131 35.465 -35.7919 -4.60321 30.5094 7.41913)" gradientUnits="userSpaceOnUse">
      <stop offset="0.018757" stop-color="#4F7AFF"/>
      <stop offset="0.506049" stop-color="white" stop-opacity="0"/>
    </radialGradient>
    <radialGradient id="paint16_radial_37436_68537" cx="0" cy="0" r="1" gradientTransform="matrix(20.4447 14.7522 -24.7101 34.6097 11.3037 13.6776)" gradientUnits="userSpaceOnUse">
      <stop offset="0.007027" stop-color="#AAA3FF"/>
      <stop offset="0.994528" stop-color="white" stop-opacity="0.011765"/>
    </radialGradient>
    <radialGradient id="paint17_radial_37436_68537" cx="0" cy="0" r="1" gradientTransform="matrix(21.6062 9.8349 -10.1638 22.5666 17.8865 25.1518)" gradientUnits="userSpaceOnUse">
      <stop offset="0.310789" stop-color="white" stop-opacity="0"/>
      <stop offset="1" stop-color="#8B57FF"/>
    </radialGradient>
    <radialGradient id="paint20_radial_37436_68537" cx="0" cy="0" r="1" gradientTransform="matrix(20.4313 -26.4938 27.38 21.3395 15.8138 38.2293)" gradientUnits="userSpaceOnUse">
      <stop offset="0.897895" stop-color="#8CB2FF" stop-opacity="0"/>
      <stop offset="1" stop-color="#8CB2FF" stop-opacity="0.705882"/>
    </radialGradient>
    <radialGradient id="paint21_radial_37436_68537" cx="0" cy="0" r="1" gradientTransform="matrix(-16.8779 29.4706 -21.2529 -12.3012 32.9875 12.6289)" gradientUnits="userSpaceOnUse">
      <stop offset="0.861437" stop-color="white" stop-opacity="0"/>
      <stop offset="0.960517" stop-color="#FF922D" stop-opacity="0.494118"/>
      <stop offset="1" stop-color="#FFC441"/>
    </radialGradient>
    <linearGradient id="paint28_linear_37436_68537" x1="7.67073" y1="30.1933" x2="40.7339" y2="17.2149" gradientUnits="userSpaceOnUse">
      <stop offset="0.496183" stop-color="white"/>
      <stop offset="1" stop-color="#90E0FF" stop-opacity="0.533333"/>
    </linearGradient>
    <radialGradient id="paint29_radial_37436_68537" cx="0" cy="0" r="1" gradientUnits="userSpaceOnUse" gradientTransform="translate(37.0551 33.6186) rotate(-145.643) scale(32.5183 23.8907)">
      <stop offset="0.929813" stop-color="white" stop-opacity="0"/>
      <stop offset="0.999947" stop-color="white"/>
    </radialGradient>
  </defs>
</svg>
